<svg width="10" height="10" viewBox="0 0 10 10" fill="none" xmlns="http://www.w3.org/2000/svg">
<path fill-rule="evenodd" clip-rule="evenodd" d="M7.79459 2.20529C7.95731 2.36801 7.95731 2.63183 7.79459 2.79455L3.21125 7.37788C3.04854 7.5406 2.78472 7.5406 2.622 7.37788L0.538665 5.29455C0.375946 5.13183 0.375946 4.86801 0.538665 4.70529C0.701383 4.54257 0.965202 4.54257 1.12792 4.70529L2.91663 6.494L7.20533 2.20529C7.36805 2.04257 7.63187 2.04257 7.79459 2.20529ZM9.46125 3.87196C9.62397 4.03468 9.62397 4.29849 9.46125 4.46121L6.33625 7.58621C6.17354 7.74893 5.90972 7.74893 5.747 7.58621L5.122 6.96121C4.95928 6.79849 4.95928 6.53468 5.122 6.37196C5.28472 6.20924 5.54854 6.20924 5.71125 6.37196L6.04163 6.70233L8.872 3.87196C9.03472 3.70924 9.29854 3.70924 9.46125 3.87196Z" fill="currentColor"/>
</svg>
