<svg width="16" height="16" viewBox="0 0 16 16" fill="none" xmlns="http://www.w3.org/2000/svg">
<path fill-rule="evenodd" clip-rule="evenodd" d="M5.33333 0.666748C5.70152 0.666748 6 0.965225 6 1.33341V2.00008H7.33333V1.33341C7.33333 0.965225 7.63181 0.666748 8 0.666748C8.36819 0.666748 8.66667 0.965225 8.66667 1.33341V2.00008H10V1.33341C10 0.965225 10.2985 0.666748 10.6667 0.666748C11.0349 0.666748 11.3333 0.965225 11.3333 1.33341V2.00008H12C13.1046 2.00008 14 2.89551 14 4.00008V13.3334C14 14.438 13.1046 15.3334 12 15.3334H4C2.89543 15.3334 2 14.438 2 13.3334V4.00008C2 2.89551 2.89543 2.00008 4 2.00008H4.66667V1.33341C4.66667 0.965225 4.96514 0.666748 5.33333 0.666748ZM4.66667 3.33341H4C3.63181 3.33341 3.33333 3.63189 3.33333 4.00008V13.3334C3.33333 13.7016 3.63181 14.0001 4 14.0001H12C12.3682 14.0001 12.6667 13.7016 12.6667 13.3334V4.00008C12.6667 3.63189 12.3682 3.33341 12 3.33341H11.3333V4.00008C11.3333 4.36827 11.0349 4.66675 10.6667 4.66675C10.2985 4.66675 10 4.36827 10 4.00008V3.33341H8.66667V4.00008C8.66667 4.36827 8.36819 4.66675 8 4.66675C7.63181 4.66675 7.33333 4.36827 7.33333 4.00008V3.33341H6V4.00008C6 4.36827 5.70152 4.66675 5.33333 4.66675C4.96514 4.66675 4.66667 4.36827 4.66667 4.00008V3.33341ZM4.66667 6.66675C4.66667 6.29856 4.96514 6.00008 5.33333 6.00008H9.33333C9.70152 6.00008 10 6.29856 10 6.66675C10 7.03494 9.70152 7.33342 9.33333 7.33342H5.33333C4.96514 7.33342 4.66667 7.03494 4.66667 6.66675ZM4.66667 9.33342C4.66667 8.96523 4.96514 8.66675 5.33333 8.66675H10.6667C11.0349 8.66675 11.3333 8.96523 11.3333 9.33342C11.3333 9.7016 11.0349 10.0001 10.6667 10.0001H5.33333C4.96514 10.0001 4.66667 9.7016 4.66667 9.33342ZM4.66667 12.0001C4.66667 11.6319 4.96514 11.3334 5.33333 11.3334H8.66667C9.03486 11.3334 9.33333 11.6319 9.33333 12.0001C9.33333 12.3683 9.03486 12.6667 8.66667 12.6667H5.33333C4.96514 12.6667 4.66667 12.3683 4.66667 12.0001Z" fill="currentColor"/>
</svg>
