<svg width="16" height="16" viewBox="0 0 16 16" fill="none" xmlns="http://www.w3.org/2000/svg">
<path fill-rule="evenodd" clip-rule="evenodd" d="M6.22132 2.22149C6.06489 2.37792 5.99992 2.55024 5.99992 2.66675V3.33341H9.99992V2.66675C9.99992 2.55024 9.93495 2.37792 9.77851 2.22149C9.62208 2.06505 9.44976 2.00008 9.33325 2.00008H6.66658C6.55007 2.00008 6.37776 2.06505 6.22132 2.22149ZM11.3333 3.33341V2.66675C11.3333 2.11659 11.0649 1.62224 10.7213 1.27868C10.3778 0.935113 9.88341 0.666748 9.33325 0.666748H6.66658C6.11643 0.666748 5.62208 0.935113 5.27851 1.27868C4.93495 1.62224 4.66658 2.11659 4.66658 2.66675V3.33341H1.99992C1.63173 3.33341 1.33325 3.63189 1.33325 4.00008C1.33325 4.36827 1.63173 4.66675 1.99992 4.66675H2.66659V13.3334C2.66659 13.8836 2.93495 14.3779 3.27851 14.7215C3.62208 15.0651 4.11643 15.3334 4.66658 15.3334H11.3333C11.8834 15.3334 12.3778 15.0651 12.7213 14.7215C13.0649 14.3779 13.3333 13.8836 13.3333 13.3334V4.66675H13.9999C14.3681 4.66675 14.6666 4.36827 14.6666 4.00008C14.6666 3.63189 14.3681 3.33341 13.9999 3.33341H11.3333ZM3.99992 4.66675V13.3334C3.99992 13.4499 4.06489 13.6222 4.22132 13.7787C4.37776 13.9351 4.55007 14.0001 4.66658 14.0001H11.3333C11.4498 14.0001 11.6221 13.9351 11.7785 13.7787C11.9349 13.6222 11.9999 13.4499 11.9999 13.3334V4.66675H3.99992ZM6.66658 6.66675C7.03477 6.66675 7.33325 6.96522 7.33325 7.33342V11.3334C7.33325 11.7016 7.03477 12.0001 6.66658 12.0001C6.2984 12.0001 5.99992 11.7016 5.99992 11.3334V7.33342C5.99992 6.96522 6.2984 6.66675 6.66658 6.66675ZM9.33325 6.66675C9.70144 6.66675 9.99992 6.96522 9.99992 7.33342V11.3334C9.99992 11.7016 9.70144 12.0001 9.33325 12.0001C8.96506 12.0001 8.66658 11.7016 8.66658 11.3334V7.33342C8.66658 6.96522 8.96506 6.66675 9.33325 6.66675Z" fill="currentColor"/>
</svg>
