<svg width="14" height="16" viewBox="0 0 14 16" fill="none" xmlns="http://www.w3.org/2000/svg">
<path d="M1.66662 9.33328C1.54046 9.33371 1.41677 9.29833 1.30992 9.23126C1.20307 9.16419 1.11744 9.06818 1.06299 8.95438C1.00853 8.84058 0.987483 8.71367 1.00229 8.58838C1.01709 8.4631 1.06714 8.34458 1.14662 8.24661L7.74662 1.44661C7.79613 1.38947 7.86359 1.35085 7.93794 1.3371C8.01229 1.32335 8.0891 1.33529 8.15577 1.37095C8.22245 1.40661 8.27501 1.46388 8.30484 1.53335C8.33468 1.60283 8.34001 1.68038 8.31995 1.75328L7.03995 5.76661C7.00221 5.86763 6.98954 5.97629 7.00302 6.08328C7.01649 6.19027 7.05573 6.2924 7.11735 6.3809C7.17897 6.46939 7.26114 6.54162 7.3568 6.59139C7.45247 6.64115 7.55878 6.66696 7.66662 6.66661H12.3333C12.4594 6.66618 12.5831 6.70156 12.69 6.76863C12.7968 6.8357 12.8825 6.93171 12.9369 7.04551C12.9914 7.15931 13.0124 7.28622 12.9976 7.41151C12.9828 7.53679 12.9328 7.65531 12.8533 7.75328L6.25329 14.5533C6.20378 14.6104 6.13631 14.649 6.06197 14.6628C5.98762 14.6765 5.9108 14.6646 5.84413 14.6289C5.77746 14.5933 5.7249 14.536 5.69506 14.4665C5.66523 14.3971 5.6599 14.3195 5.67995 14.2466L6.95995 10.2333C6.9977 10.1323 7.01037 10.0236 6.99689 9.91661C6.98341 9.80962 6.94418 9.70749 6.88256 9.61899C6.82094 9.5305 6.73877 9.45827 6.6431 9.40851C6.54744 9.35874 6.44112 9.33293 6.33329 9.33328H1.66662Z" stroke="currentColor" stroke-width="1.13333" stroke-linecap="round" stroke-linejoin="round"/>
</svg>
